# xmcd CD database file
#
# Track frame offsets:
#	150
#	16802
#	36850
#	64371
#	85260
#	117652
#
# Disc length: 1893 seconds
#
# Revision: 1
# Processed by: cddbd v1.5.1PL2 Copyright (c) Steve Scherf et al.
# Submitted via: CDex 1.51
#
DISCID=4c076306
DTITLE=Viagem - Terra
DYEAR=2004
DGENRE=Jazz
TTITLE0=Estrada do sol
TTITLE1=Vem'ca
TTITLE2=On mizik
TTITLE3=Minha televisao
TTITLE4=Terra
TTITLE5=Song for my father
EXTD=YEAR: 2004
EXTT0=
EXTT1=
EXTT2=
EXTT3=
EXTT4=
EXTT5=
PLAYORDER=
